<svg xmlns="http://www.w3.org/2000/svg" version="1.1" xmlns:xlink="http://www.w3.org/1999/xlink" xmlns:svgjs="http://svgjs.dev/svgjs" width="128" height="128" viewBox="0 0 128 128"><g transform="matrix(0.8046875,0,0,0.8046875,12.333870967741937,12.333870967741937)"><svg viewBox="0 0 155 155" data-background-color="#ffffff" preserveAspectRatio="xMidYMid meet" height="128" width="128" xmlns="http://www.w3.org/2000/svg" xmlns:xlink="http://www.w3.org/1999/xlink"><g id="tight-bounds" transform="matrix(1,0,0,1,0.25,0.25)"><svg viewBox="0 0 154.5 154.5" height="154.5" width="154.5"><g><svg></svg></g><g><svg viewBox="0 0 154.5 154.5" height="154.5" width="154.5"><g transform="matrix(1,0,0,1,51.05650333774896,47.746371)"><svg viewBox="0 0 52.386993324502086 59.00725799999999" height="59.00725799999999" width="52.386993324502086"><g><svg viewBox="0 0 52.386993324502086 59.00725799999999" height="59.00725799999999" width="52.386993324502086"><g><svg viewBox="0 0 52.386993324502086 59.00725799999999" height="59.00725799999999" width="52.386993324502086"><g id="textblocktransform"><svg viewBox="0 0 52.386993324502086 59.00725799999999" height="59.00725799999999" width="52.386993324502086" id="textblock"><g><svg viewBox="0 0 52.386993324502086 59.00725799999999" height="59.00725799999999" width="52.386993324502086"><g transform="matrix(1,0,0,1,0,0)"><svg width="52.386993324502086" viewBox="1.6620689655172414 -26.58034188034188 23.641263551407757 26.63034188034188" height="59.00725799999999" data-palette-color="#ff5858"><path d="M17.15-0.8L17.15-0.8Q15.35-0.1 13.08 0 10.8 0.1 8.85-0.53 6.9-1.15 5.4-2.45L5.4-2.45Q2.8-4.6 2.05-7.8 1.3-11 2-13.55 2.7-16.1 4.13-18.53 5.55-20.95 7.23-22.63 8.9-24.3 11.1-25.45 13.3-26.6 15.7-26.58 18.1-26.55 20.75-25.25L20.75-25.25Q21.15-25.05 21.63-24.65 22.1-24.25 22.45-23.95L22.45-23.95 23.1-23.3Q23.4-23 23.4-22.95L23.4-22.95Q24.2-22.25 24.25-21.15L24.25-21.15Q24.9-18.15 25.1-14.85 25.3-11.55 25.23-8.65 25.15-5.75 25.3-2.5L25.3-2.5Q25.35-1.5 24.65-0.75 23.95 0 22.9 0.05 21.85 0.1 21.1-0.6 20.35-1.3 20.3-2.3L20.3-2.3 20.3-3.05Q18.8-1.5 17.15-0.8L17.15-0.8ZM14.9-5.3L14.9-5.3Q15.65-5.5 16.1-5.7 16.55-5.9 17.23-6.3 17.9-6.7 18.65-7.3 19.4-7.9 20-8.8L20-8.8Q20.1-8.9 20.25-9L20.25-9Q20.25-15.75 19.4-19.85L19.4-19.85Q19.25-20.05 19.07-20.23 18.9-20.4 18.82-20.5 18.75-20.6 18.63-20.68 18.5-20.75 18.35-20.85L18.35-20.85Q15.95-22.15 13.3-20.93 10.65-19.7 8.65-16.35L8.65-16.35Q6.65-12.95 6.68-10.43 6.7-7.9 8.6-6.25L8.6-6.25Q9.75-5.3 11.45-5.05 13.15-4.8 14.9-5.3L14.9-5.3Z" opacity="1" transform="matrix(1,0,0,1,0,0)" fill="#ff5858" class="wordmark-text-0" data-fill-palette-color="primary" id="text-0"></path></svg></g></svg></g></svg></g></svg></g><g></g></svg></g></svg></g><g><path d="M51.473 33.816A26.193 26.193 0 0 1 103.027 33.816L97.706 33.816A20.872 20.872 0 0 0 56.794 33.816L51.473 33.816M51.473 120.684A26.193 26.193 0 0 0 103.027 120.684L97.706 120.684A20.872 20.872 0 0 1 56.794 120.684L51.473 120.684" fill="#ff5858" stroke="transparent" data-fill-palette-color="tertiary"></path></g></svg></g><defs></defs></svg><rect width="154.5" height="154.5" fill="none" stroke="none" visibility="hidden"></rect></g></svg></g></svg>